<svg xmlns="http://www.w3.org/2000/svg" width="48" height="48">
  <rect width="48" height="48" fill="#fff" ry="8.7"/>
  <circle cx="10.735" cy="36.481" r="5.6" fill="none" stroke="red" stroke-width="3"/>
  <path d="M30.117 3.113c-1.12 0-1.959.747-1.959 1.727v4.527l-7.187.7c-1.074.14-1.633.746-1.633 1.82 0 .98.699 1.68 1.539 1.633l.326-.047 6.955-.653v3.315l-5.834.605c-1.026.14-1.633.747-1.633 1.727 0 .934.652 1.586 1.493 1.539l.28-.045L38.8 18.326c1.027-.093 1.586-.7 1.586-1.68 0-.933-.606-1.585-1.54-1.585h-.28l-6.487.699V12.4l8.354-.84c1.026-.092 1.588-.747 1.588-1.773 0-.98-.608-1.635-1.588-1.635h-.28l-8.074.84V4.84c0-.98-.794-1.727-1.96-1.727zm-22.447.7c-.747 0-1.354.607-1.354 1.4 0 .607.234.933 1.028 1.4 1.913 1.12 3.92 2.38 4.433 2.707.794.607 1.167.746 1.727.746 1.027 0 1.914-.887 1.914-1.867 0-.934-.514-1.54-2.008-2.334-2.193-1.073-4.807-2.053-5.74-2.053zm9.273 7.552a1.429 1.429 0 0 0-.173.008l-13.58 1.26c-.934.094-1.448.7-1.448 1.726 0 1.074.747 1.774 1.727 1.68l13.582-1.305c.886-.094 1.492-.7 1.492-1.54 0-1.007-.738-1.81-1.6-1.829zm-1.867 6.58c-.057 0-.113.002-.172.008l-9.008.84c-.793.093-1.353.701-1.353 1.541 0 1.027.746 1.727 1.68 1.633l8.914-.84c.887-.093 1.447-.7 1.447-1.633 0-.919-.657-1.55-1.508-1.549zm25.682 3.135L22.23 23.086c-.233-.98-.56-1.305-1.306-1.305-.887 0-1.307.42-1.4 1.4-.234 1.868-.514 3.407-.934 4.667-.233.7-.28.888-.28 1.168 0 .98.841 1.724 1.868 1.724 1.54 0 2.193-1.352 2.24-4.619l16.008-1.726h.28c.326 0 .466.139.466.373 0 .326-.466 1.352-1.166 2.425-.233.42-.328.654-.328.934 0 .653.561 1.213 1.261 1.213.7 0 .98-.28 2.426-2.1 1.54-2.053 2.194-3.36 2.194-4.386 0-1.073-.887-1.774-2.24-1.774h-.561zm-25.682 2.838a1.75 1.75 0 0 0-.172.01l-8.96.886c-.887.094-1.401.7-1.401 1.633s.793 1.68 1.68 1.586l9.007-.931c.84-.093 1.4-.75 1.4-1.682 0-.875-.698-1.504-1.554-1.502zm18.03 2.996c-1.12 0-1.868.606-1.915 1.633l-.466 11.342-.047.84c-.094 1.726.56 2.892 1.914 3.312.793.28 2.1.375 4.527.375 5.554 0 7.28-.795 7.28-3.268 0-1.027-.28-3.406-.653-5.32-.187-1.026-.607-1.447-1.4-1.447-.794 0-1.121.42-1.121 1.54 0 4.574-.233 4.854-3.5 4.854-2.754 0-3.08-.14-3.174-1.4v-.232l.375-10.547c.046-.981-.7-1.682-1.82-1.682zm-6.583 1.4c-1.073 0-1.633.468-1.773 1.448-.793 5.6-2.518 9.24-5.785 11.947-.56.466-.795.886-.795 1.353 0 .654.653 1.307 1.26 1.307.373 0 .701-.093 1.261-.467 2.287-1.26 4.294-3.547 5.694-6.394 1.026-2.146 2.006-5.646 2.006-7.28 0-1.212-.7-1.914-1.868-1.914z"/>
</svg>
