<?xml version="1.0" encoding="UTF-8" standalone="no"?>
<!-- Created with Inkscape (http://www.inkscape.org/) -->

<svg
   width="48"
   height="48"
   viewBox="0 0 48 48"
   version="1.1"
   id="svg5"
   inkscape:version="1.2.2 (b0a8486541, 2022-12-01)"
   sodipodi:docname="logo.svg"
   xmlns:inkscape="http://www.inkscape.org/namespaces/inkscape"
   xmlns:sodipodi="http://sodipodi.sourceforge.net/DTD/sodipodi-0.dtd"
   xmlns="http://www.w3.org/2000/svg"
   xmlns:svg="http://www.w3.org/2000/svg">
  <sodipodi:namedview
     id="namedview7"
     pagecolor="#ffffff"
     bordercolor="#666666"
     borderopacity="1.0"
     inkscape:showpageshadow="2"
     inkscape:pageopacity="0"
     inkscape:pagecheckerboard="true"
     inkscape:deskcolor="#d1d1d1"
     inkscape:document-units="px"
     showgrid="false"
     inkscape:zoom="7.8420999"
     inkscape:cx="27.224851"
     inkscape:cy="28.500019"
     inkscape:window-width="1465"
     inkscape:window-height="759"
     inkscape:window-x="2182"
     inkscape:window-y="172"
     inkscape:window-maximized="0"
     inkscape:current-layer="layer1" />
  <defs
     id="defs2" />
  <g
     inkscape:label="Layer 1"
     inkscape:groupmode="layer"
     id="layer1"
     transform="translate(-25.430312,-106.0042)">
    <rect
       style="fill:#ffffff;stroke:none;stroke-width:1.88976"
       id="rect300"
       width="48"
       height="48"
       x="25.430311"
       y="106.0042"
       ry="8.7004757" />
    <g
       id="g1342"
       transform="translate(-1.1303605,-0.41149396)">
      <circle
         style="fill:none;stroke:#ff0000;stroke-width:3;stroke-dasharray:none"
         id="path448"
         r="5.5990114"
         cy="142.89644"
         cx="37.295334" />
      <g
         aria-label="шкн"
         id="text476"
         style="font-weight:500;font-size:46.6698px;line-height:1.25;font-family:'UDDigiKyokasho Std';-inkscape-font-specification:'UDDigiKyokasho Std Medium';letter-spacing:0px;word-spacing:0px;stroke-width:5.83372"
         transform="translate(0.61446229,-0.03860903)">
        <path
           d="m 52.470277,134.76859 c -1.073405,0 -1.633443,0.4667 -1.773452,1.44676 -0.793387,5.60038 -2.520169,9.24062 -5.787055,11.94747 -0.560038,0.4667 -0.793387,0.88673 -0.793387,1.35342 0,0.65338 0.653377,1.30676 1.260085,1.30676 0.373358,0 0.700047,-0.0933 1.260084,-0.4667 2.28682,-1.26008 4.293622,-3.5469 5.693716,-6.39376 1.026735,-2.14681 2.006801,-5.64705 2.006801,-7.28049 0,-1.21342 -0.700047,-1.91346 -1.866792,-1.91346 z"
           id="path594" />
        <path
           d="m 56.670559,146.3427 -0.04667,0.84005 c -0.09334,1.72679 0.560038,2.89353 1.913462,3.31356 0.793387,0.28002 2.100141,0.37336 4.526971,0.37336 5.553706,0 7.280489,-0.79339 7.280489,-3.26689 0,-1.02673 -0.280019,-3.40689 -0.653378,-5.32036 -0.186679,-1.02673 -0.606707,-1.44676 -1.400094,-1.44676 -0.793386,0 -1.120075,0.42003 -1.120075,1.5401 0,4.57364 -0.233349,4.85366 -3.500235,4.85366 -2.753518,0 -3.080207,-0.14001 -3.173546,-1.40009 v -0.23335 l 0.373358,-10.54737 c 0.04667,-0.98007 -0.700047,-1.68012 -1.820122,-1.68012 -1.120075,0 -1.866792,0.60671 -1.913462,1.63345 z"
           id="path592" />
        <path
           d="m 41.176186,133.55517 c 0.840056,-0.0933 1.400094,-0.74671 1.400094,-1.68011 0,-0.9334 -0.793387,-1.58677 -1.726783,-1.49343 l -8.960601,0.88672 c -0.886727,0.0933 -1.400094,0.70005 -1.400094,1.63345 0,0.93339 0.793386,1.68011 1.680112,1.58677 z"
           id="path590" />
        <path
           d="m 41.082846,127.58144 c 0.886726,-0.0933 1.446764,-0.70005 1.446764,-1.63345 0,-0.98006 -0.746717,-1.63344 -1.680113,-1.5401 l -9.007271,0.84006 c -0.793387,0.0933 -1.353424,0.70004 -1.353424,1.5401 0,1.02674 0.746716,1.72678 1.680112,1.63344 z"
           id="path588" />
        <path
           d="m 42.996308,121.18768 c 0.886726,-0.0933 1.493433,-0.70005 1.493433,-1.54011 0,-1.0734 -0.840056,-1.91346 -1.773452,-1.82012 l -13.580912,1.26008 c -0.933396,0.0933 -1.446763,0.70005 -1.446763,1.72679 0,1.0734 0.746716,1.77345 1.726782,1.68011 z"
           id="path586" />
        <path
           d="m 33.615678,110.26694 c -0.746717,0 -1.353424,0.60671 -1.353424,1.4001 0,0.6067 0.233349,0.93339 1.026736,1.40009 1.913461,1.12008 3.920263,2.38016 4.43363,2.70685 0.793387,0.60671 1.166745,0.74672 1.726783,0.74672 1.026736,0 1.913462,-0.88673 1.913462,-1.8668 0,-0.93339 -0.513368,-1.5401 -2.006802,-2.33349 -2.19348,-1.0734 -4.806989,-2.05347 -5.740385,-2.05347 z"
           id="path584" />
        <path
           d="m 48.176656,129.54157 c -0.233349,-0.98007 -0.560038,-1.30675 -1.306755,-1.30675 -0.886726,0 -1.306754,0.42002 -1.400094,1.40009 -0.233349,1.86679 -0.513368,3.40689 -0.933396,4.66698 -0.233349,0.70005 -0.280019,0.88673 -0.280019,1.16674 0,0.98007 0.840057,1.72679 1.866792,1.72679 1.540104,0 2.193481,-1.35343 2.240151,-4.62031 l 16.007741,-1.72679 h 0.280019 c 0.326689,0 0.466698,0.14001 0.466698,0.37336 0,0.32669 -0.466698,1.35343 -1.166745,2.42683 -0.233349,0.42003 -0.326689,0.65338 -0.326689,0.9334 0,0.65338 0.560038,1.21341 1.260085,1.21341 0.700047,0 0.980066,-0.28002 2.42683,-2.10014 1.540103,-2.05347 2.19348,-3.36022 2.19348,-4.38696 0,-1.0734 -0.886726,-1.77345 -2.24015,-1.77345 h -0.560038 z"
           id="path582" />
        <path
           d="m 58.023983,118.85419 8.353895,-0.84006 c 1.026735,-0.0933 1.586773,-0.74672 1.586773,-1.77345 0,-0.98007 -0.606708,-1.63345 -1.586773,-1.63345 h -0.280019 l -8.073876,0.84006 v -4.15361 c 0,-0.98007 -0.793386,-1.72678 -1.960131,-1.72678 -1.120075,0 -1.960132,0.74671 -1.960132,1.72678 v 4.52697 l -7.187149,0.70005 c -1.073405,0.14 -1.633443,0.74671 -1.633443,1.82012 0,0.98006 0.700047,1.68011 1.540103,1.63344 l 0.326689,-0.0467 6.9538,-0.65338 v 3.31356 l -5.833725,0.60671 c -1.026735,0.14001 -1.633443,0.74671 -1.633443,1.72678 0,0.9334 0.653377,1.58677 1.493434,1.5401 l 0.280019,-0.0467 16.33443,-1.63344 c 1.026735,-0.0933 1.586773,-0.70005 1.586773,-1.68011 0,-0.9334 -0.606708,-1.58678 -1.540104,-1.58678 h -0.280018 l -6.487103,0.70005 z"
           id="path580" />
      </g>
    </g>
  </g>
</svg>
